<?xml version="1.0" encoding="UTF-8" standalone="no"?>
<!-- Created with Inkscape (http://www.inkscape.org/) -->

<svg
   xmlns:dc="http://purl.org/dc/elements/1.1/"
   xmlns:cc="http://creativecommons.org/ns#"
   xmlns:rdf="http://www.w3.org/1999/02/22-rdf-syntax-ns#"
   xmlns:svg="http://www.w3.org/2000/svg"
   xmlns="http://www.w3.org/2000/svg"
   xmlns:sodipodi="http://sodipodi.sourceforge.net/DTD/sodipodi-0.dtd"
   xmlns:inkscape="http://www.inkscape.org/namespaces/inkscape"
   width="210mm"
   height="297mm"
   viewBox="0 0 210 297"
   version="1.1"
   id="svg8"
   sodipodi:docname="LeftLineV2.svg"
   inkscape:version="0.92.4 (5da689c313, 2019-01-14)">
  <defs
     id="defs2">
    <style
       id="style815">
      .cls-1, .cls-2 {
        fill: none;
        stroke: #4db598;
        stroke-miterlimit: 10;
      }

      .cls-2 {
        stroke-width: 1.5px;
      }
    </style>
  </defs>
  <sodipodi:namedview
     id="base"
     pagecolor="#ffffff"
     bordercolor="#666666"
     borderopacity="1.0"
     inkscape:pageopacity="0.0"
     inkscape:pageshadow="2"
     inkscape:zoom="1.979899"
     inkscape:cx="68.831765"
     inkscape:cy="1008.6758"
     inkscape:document-units="mm"
     inkscape:current-layer="layer1"
     showgrid="false"
     inkscape:window-width="1920"
     inkscape:window-height="1137"
     inkscape:window-x="-8"
     inkscape:window-y="-8"
     inkscape:window-maximized="1" />
  <metadata
     id="metadata5">
    <rdf:RDF>
      <cc:Work
         rdf:about="">
        <dc:format>image/svg+xml</dc:format>
        <dc:type
           rdf:resource="http://purl.org/dc/dcmitype/StillImage" />
      </cc:Work>
    </rdf:RDF>
  </metadata>
  <g
     inkscape:label="Ebene 1"
     inkscape:groupmode="layer"
     id="layer1">
    <g
       data-name="Ebene 2"
       id="Ebene_2"
       transform="matrix(0.26458333,0,0,0.26458333,-0.00107201,0.00574091)">
      <g
         data-name="Ebene 1"
         id="Ebene_1-2">
        <path
           id="line825"
           style="fill:none;stroke:#4db598;stroke-miterlimit:10"
           d="M 54.41,197.5 H 66.484999 78.559998 M 112.11,224.92999 c 0,4.07863 -1.65319,7.77113 -4.32604,10.44397 -2.67284,2.67284 -6.36534,4.32603 -10.443964,4.32603 -4.078623,0 -7.771123,-1.65319 -10.443967,-4.32603 -2.672844,-2.67284 -4.326033,-6.36534 -4.326033,-10.44397 0,-4.07863 1.653189,-7.77112 4.326033,-10.44397 2.672844,-2.67284 6.365344,-4.32603 10.443967,-4.32603 4.078624,0 7.771124,1.65319 10.443964,4.32603 2.67285,2.67285 4.32604,6.36534 4.32604,10.44397 z M 96.95,239.7 v 13.67 H 87.5025 78.055 68.6075 59.16 l 5.543125,-15.80437 5.543125,-15.80438 5.543125,-15.80438 5.543125,-15.80437 5.543125,-15.80438 5.543125,-15.80437 5.543125,-15.80437 5.543125,-15.80438 5.54313,-15.80437 5.54312,-15.80438 5.54313,-15.804375 L 125.6775,63.7175 131.22062,47.913125 136.76375,32.10875 142.30688,16.304375 147.85,0.5 h 12.07 12.07 12.07 12.07 M 118.45,82.68 H 106.79 95.13 L 91.3025,93.4125 87.475,104.145 83.6475,114.8775 79.82,125.61 74.20375,141.49875 68.5875,157.3875 62.97125,173.27625 57.355,189.165 51.73875,205.05375 46.1225,220.9425 40.50625,236.83125 34.89,252.72 H 20.605 6.32 l -5.86,13.02"
           inkscape:connector-curvature="0"
           sodipodi:nodetypes="cccssssssssscccccccccccccccccccccccccccccccccccccccccccc" />
      </g>
    </g>
  </g>
</svg>
